 http://desibbrg.org/images/66952052392581364616.gif 
http://desibbrg.org/images/87905830350791820239.png 
http://desibbrg.org/images/66310014191205150234.jpg 
http://desibbrg.org/images/79401885916593253207.jpg 
http://desibbrg.org/images/98493683284060503614.jpg 
http://desibbrg.org/images/19410019880858148190.jpg

Cast - 
Starring - Guddi Maruti, Rajendra Mehra, Anjan Srivastava, Sadia Siddiqui, Ajay Wadhavkar, Shashi Kiran, Ramesh Goyal, Nilofer, Rajesh Puri, Dolly Bindra, Delnaz Paul, Mushtaq Khan, Master Vishal Solanki

Media Info - 
General
Format                           : MPEG-4
Format profile                   : Base Media / Version 2
Codec ID                         : mp42
File size                        : 966 MiB
Duration                         : 2h 4mn
Overall bit rate                 : 1 086 Kbps
Encoded date                     : UTC 2012-11-20 18:03:26
Tagged date                      : UTC 2012-11-20 18:29:23
Writing application              : HandBrake 0.9.8 2012071700

Video
ID                               : 1
Format                           : AVC
Format/Info                      : Advanced Video Codec
Format profile                   : High@L2.1
Format settings, CABAC           : Yes
Format settings, ReFrames        : 4 frames
Codec ID                         : avc1
Codec ID/Info                    : Advanced Video Coding
Duration                         : 2h 4mn
Bit rate mode                    : Variable
Bit rate                         : 715 Kbps
Width                            : 640 pixels
Height                           : 288 pixels
Display aspect ratio             : 2.25:1
Frame rate mode                  : Constant
Frame rate                       : 25.000 fps
Color space                      : YUV
Chroma subsampling               : 4:2:0
Bit depth                        : 8 bits
Scan type                        : Progressive
Bits/(Pixel*Frame)               : 0.155
Stream size                      : 636 MiB (66%)
Writing library                  : x264 core 120
Encoded date                     : UTC 2012-11-20 18:03:26
Tagged date                      : UTC 2012-11-20 18:29:23
Color primaries                  : BT.601-6 525, BT.1358 525, BT.1700 NTSC, SMPTE 170M
Transfer characteristics         : BT.709-5, BT.1361
Matrix coefficients              : BT.601-6 525, BT.1358 525, BT.1700 NTSC, SMPTE 170M

Audio #1
ID                               : 2
Format                           : AAC
Format/Info                      : Advanced Audio Codec
Format profile                   : LC
Codec ID                         : 40
Duration                         : 2h 4mn
Bit rate mode                    : Variable
Bit rate                         : 141 Kbps
Maximum bit rate                 : 168 Kbps
Channel(s)                       : 2 channels
Channel positions                : Front: L R
Sampling rate                    : 44.1 KHz
Compression mode                 : Lossy
Stream size                      : 125 MiB (13%)
Encoded date                     : UTC 2012-11-20 18:03:26
Tagged date                      : UTC 2012-11-20 18:29:22

Audio #2
ID                               : 3
Format                           : AC-3
Format/Info                      : Audio Coding 3
Mode extension                   : CM (complete main)
Codec ID                         : ac-3
Duration                         : 2h 4mn
Bit rate mode                    : Constant
Bit rate                         : 224 Kbps
Channel(s)                       : 2 channels
Channel positions                : Front: L R
Sampling rate                    : 44.1 KHz
Bit depth                        : 16 bits
Compression mode                 : Lossy
Stream size                      : 199 MiB (21%)
Encoded date                     : UTC 2012-11-20 18:03:26
Tagged date                      : UTC 2012-11-20 18:29:22

Ripper : Lottery

Seeding 24x7... Extreme Seeding...


Enjoy!
